Coordinates
version=1
nRows=17
nColumns=33
inDegrees=yes

Units are S.I. units (second, meters, Newtons, ...)
Angles are in degrees.

endheader
time	ground_thorax_rot_x	ground_thorax_rot_y	ground_thorax_rot_z	ground_thorax_tx	ground_thorax_ty	ground_thorax_tz	clav_prot_r	clav_elev_r	scapula_abduction_r	scapula_elevation_r	scapula_upward_rot_r	scapula_winging_r	shoulder_elv_r	plane_of_elev_r	axial_rot_r	elbow_flexion_r	pro_sup_r	wrist_flex_r	wrist_dev_r	clav_prot_l	clav_elev_l	scapula_abduction_l	scapula_elevation_l	scapula_upward_rot_l	scapula_winging_l	shoulder_elv_l	plane_of_elev_l	axial_rot_l	elbow_flexion_l	pro_sup_l	wrist_flex_l	wrist_dev_l	
6.6400	38.426104	6.937509	18.185539	-229.147180	837.888054	-6.594671	8.205272	43.902206	37.399525	45.000000	-12.338404	2055.612474	-2460.845636	18.082857	-180.000000	1085.254429	-90.415092	18.480745	10.817563	11.561124	-45.000000	-32.696312	45.000000	-45.000000	-1340.212545	-1177.813616	147.953113	130.759729	9.343083	392.264319	10.328935	-22.127156	
6.6500	38.613730	6.656203	17.619672	-230.144972	839.808243	-6.682678	7.672477	43.940222	37.838961	45.000000	-10.970536	2054.849594	-2460.625730	17.947507	-180.000000	1085.450632	-90.432856	18.445250	10.842173	11.563375	-45.000000	-32.775886	45.000000	-45.000000	-1340.209671	-1177.832806	147.857555	130.847174	9.384385	392.244517	10.214925	-22.170471	
6.6600	38.814848	6.231426	16.888971	-231.061937	841.693878	-6.764946	7.108706	43.738962	38.339882	45.000000	-9.585444	2054.107223	-2460.487647	17.801230	-180.000000	1085.642944	-90.459877	18.539102	10.840516	11.534846	-45.000000	-32.990561	45.000000	-45.000000	-1340.123020	-1177.926013	147.598129	130.891928	9.439161	392.232726	10.016619	-22.216283	
6.6700	38.962871	6.016194	16.429211	-231.800639	843.507931	-6.835924	6.740184	43.772158	38.698355	45.000000	-8.530300	2053.528386	-2460.306722	17.705343	-180.000000	1085.783279	-90.430707	18.548147	10.853414	11.561546	-45.000000	-33.078754	45.000000	-45.000000	-1340.091440	-1177.904778	147.513881	130.988405	9.492837	392.272660	9.905186	-22.248693	
6.6800	39.084816	5.869599	16.063712	-232.352343	845.244680	-6.893437	6.468811	43.841054	38.980182	45.000000	-7.679274	2053.075573	-2460.139270	17.639384	-180.000000	1085.882465	-90.365598	18.557720	10.865329	11.614780	-45.000000	-33.156482	45.000000	-45.000000	-1340.063701	-1177.844910	147.465510	131.080580	9.559684	392.361970	9.817102	-22.277545	
6.6900	39.182184	5.782316	15.782637	-232.695743	846.894582	-6.935254	6.278966	43.927517	39.183599	45.000000	-7.020279	2052.751071	-2459.988179	17.602722	-180.000000	1085.939674	-90.263289	18.574799	10.874640	11.692980	-45.000000	-33.233737	45.000000	-45.000000	-1340.035896	-1177.755717	147.442101	131.162669	9.636728	392.507095	9.743618	-22.302586	
6.7000	39.265138	5.718510	15.541870	-232.833819	848.457967	-6.961225	6.128393	43.995601	39.337732	45.000000	-6.492922	2052.520994	-2459.861483	17.588014	-180.000000	1085.963598	-90.125987	18.606807	10.881802	11.787609	-45.000000	-33.331087	45.000000	-45.000000	-1340.006259	-1177.653876	147.416899	131.211115	9.732241	392.711054	9.674207	-22.329811	
6.7100	39.344576	5.640673	15.294195	-232.780639	849.940053	-6.973348	5.986050	44.010064	39.478289	45.000000	-6.019079	2052.337231	-2459.760722	17.587720	-180.000000	1085.969186	-89.951025	18.666510	10.886053	11.882430	-45.000000	-33.462384	45.000000	-45.000000	-1339.971216	-1177.560873	147.359250	131.227333	9.840842	392.969879	9.588926	-22.359257	
6.7200	39.425678	5.555741	15.054703	-232.550535	851.347159	-6.975458	5.874253	44.032184	39.662573	45.000000	-5.555804	2052.115346	-2459.666664	17.607998	-180.000000	1085.975143	-89.707980	18.720361	10.897954	11.960000	-45.000000	-33.577471	45.000000	-44.999999	-1339.963344	-1177.453478	147.299275	131.221499	9.969916	393.290408	9.503054	-22.394313	
6.7300	39.508654	5.454674	14.810301	-232.158519	852.685906	-6.972816	5.781537	44.058367	39.905792	45.000000	-5.063138	2051.830863	-2459.573297	17.641997	-180.000000	1085.988948	-89.361238	18.777185	10.915089	12.018913	-45.000000	-33.678641	45.000000	-44.999999	-1339.981895	-1177.336416	147.228295	131.229589	10.113295	393.665293	9.409978	-22.434014	
6.7400	39.596987	5.322792	14.548037	-231.620507	853.963354	-6.971098	5.705165	44.094298	40.243753	45.000000	-4.487454	2051.445585	-2459.467726	17.679076	-180.000000	1086.019875	-88.855030	18.832791	10.937124	12.045744	-45.000000	-33.758286	45.000000	-44.999998	-1340.034845	-1177.209808	147.143639	131.266545	10.272165	394.092674	9.309052	-22.478232	
6.7500	39.685079	5.169258	14.270569	-230.953237	855.186858	-6.975274	5.617784	44.129872	40.633160	45.000000	-3.818393	2050.999881	-2459.343261	17.708141	-180.000000	1086.059538	-88.144473	18.898178	10.956178	12.058153	-45.000000	-33.835988	45.000000	-44.999996	-1340.112558	-1177.083976	147.041142	131.362685	10.433626	394.557975	9.199492	-22.523186	
6.7600	39.779751	4.968401	13.956166	-230.174193	856.364231	-6.988629	5.517802	44.170693	41.119782	45.000000	-2.934074	2050.447322	-2459.157747	17.701149	-180.000000	1086.119993	-87.124392	18.959259	10.968726	12.016381	-45.000000	-33.897913	45.000000	-44.999993	-1340.224033	-1176.963225	146.914588	131.535417	10.597902	395.070130	9.066073	-22.561016	
6.7700	39.861729	4.763378	13.646611	-229.301010	857.504113	-7.012200	5.373675	44.200972	41.600894	45.000000	-1.978902	2049.896858	-2458.951732	17.677180	-180.000000	1086.171559	-85.795550	19.044584	10.959485	11.989805	-45.000000	-33.980614	45.000000	-44.999988	-1340.339452	-1176.851523	146.772373	131.787965	10.753008	395.611625	8.924995	-22.597285	
6.7800	39.930717	4.559307	13.354790	-228.350910	858.616192	-7.044746	5.203024	44.219886	42.067948	45.000000	-0.986670	2049.366069	-2458.727506	17.641855	-180.000000	1086.211512	-84.181782	19.152611	10.925794	11.970302	-45.000000	-34.076454	45.000000	-44.999979	-1340.452462	-1176.745272	146.619335	132.093538	10.897911	396.179278	8.774193	-22.629606	
6.7900	39.976857	4.381414	13.104500	-227.339849	859.711369	-7.083330	5.011345	44.217654	42.465977	45.000000	-0.082361	2048.911684	-2458.525090	17.624341	-180.000000	1086.227545	-82.382256	19.294861	10.866656	11.996439	-45.000000	-34.200481	45.000000	-44.999963	-1340.549753	-1176.640324	146.464644	132.429232	11.030725	396.760706	8.628221	-22.664349	
6.8000	40.014362	4.198145	12.863160	-226.282028	860.801473	-7.124293	4.823403	44.206295	42.865767	45.000000	0.843866	2048.459205	-2458.306988	17.608007	-180.000000	1086.241200	-80.427328	19.444317	10.791169	12.011352	-45.000000	-34.323884	45.000000	-44.999933	-1340.648176	-1176.528002	146.301093	132.790808	11.165469	397.371476	8.473688	-22.697341	
